name analog
datacolumns 19
datarows 32
range 0.0 0.0155
endheader
time	ground_force_vx	ground_force_vy	ground_force_vz	ground_force_px	ground_force_py	ground_force_pz	l_ground_force_vx	l_ground_force_vy	l_ground_force_vz	l_ground_force_px	l_ground_force_py	l_ground_force_pz	ground_torque_x	ground_torque_y	ground_torque_z	l_ground_torque_x	l_ground_torque_y	l_ground_torque_z
0.0	-0.0	-0.0	-0.0	-7.851908206939697	105.55964660644533	-441.7176818847656	-12.68564224243164	-112.2580795288086	-458.5460510253906	-0.0	-0.0	-0.0	-0.0	-0.0	-0.0	60732.69140625	-6869.19287109375	-2004.2979736328125
0.0005	-0.0	-0.0	-0.0	-7.7288713455200195	106.2418212890625	-440.0686340332031	-13.161199569702148	-113.07926177978516	-460.7656555175781	-0.0	-0.0	-0.0	-0.0	-0.0	-0.0	60714.5703125	-6835.15283203125	-1925.3912353515625
0.001	-0.0	-0.0	-0.0	-7.641162395477295	106.80913543701172	-437.5827941894531	-12.982439994812012	-113.81775665283205	-462.7272033691406	-0.0	-0.0	-0.0	-0.0	-0.0	-0.0	61042.46484375	-6707.34814453125	-2005.67431640625
0.0015	-0.0	-0.0	-0.0	-7.582893371582031	107.07274627685548	-437.57464599609375	-12.83408260345459	-114.64507293701172	-464.9559020996094	-0.0	-0.0	-0.0	-0.0	-0.0	-0.0	61091.08203125	-6756.66845703125	-2036.02001953125
0.002	-0.0	-0.0	-0.0	-8.501836776733398	108.1419906616211	-436.5390319824219	-12.504206657409668	-114.75665283203124	-467.156982421875	-0.0	-0.0	-0.0	-0.0	-0.0	-0.0	61317.0	-6837.73681640625	-1936.539794921875
0.0025	-0.0	-0.0	-0.0	-9.34043312072754	108.0839385986328	-433.934326171875	-12.36605453491211	-115.6418228149414	-469.8276977539063	-0.0	-0.0	-0.0	-0.0	-0.0	-0.0	61806.84375	-6867.3779296875	-1925.590087890625
0.003	-0.0	-0.0	-0.0	-9.721461296081545	107.93692016601562	-431.0038146972656	-12.124579429626465	-115.9376983642578	-472.97796630859375	-0.0	-0.0	-0.0	-0.0	-0.0	-0.0	61985.6171875	-6930.3623046875	-1807.5093994140625
0.0035	-0.0	-0.0	-0.0	-10.37724781036377	108.17278289794922	-429.466796875	-11.498574256896973	-116.99763488769533	-474.3639221191406	-0.0	-0.0	-0.0	-0.0	-0.0	-0.0	62216.60546875	-6815.09228515625	-1679.0206298828125
0.004	-0.0	-0.0	-0.0	-11.352819442749023	108.14678955078124	-426.0377197265625	-11.326303482055664	-117.73280334472656	-478.3271789550781	-0.0	-0.0	-0.0	-0.0	-0.0	-0.0	62481.43359375	-7310.9521484375	-1521.161376953125
0.0045000000000000005	-0.0	-0.0	-0.0	-11.979823112487791	108.41742706298828	-424.5467529296875	-10.79119873046875	-118.41090393066406	-479.61029052734375	-0.0	-0.0	-0.0	-0.0	-0.0	-0.0	63069.31640625	-7498.802734375	-1392.7342529296875
0.005	-0.0	-0.0	-0.0	-12.45755100250244	107.75865173339844	-420.9645385742188	-10.467872619628906	-119.21204376220705	-484.2733154296875	-0.0	-0.0	-0.0	-0.0	-0.0	-0.0	63246.6640625	-7631.75439453125	-1343.9796142578125
0.0055	-0.0	-0.0	-0.0	-12.757102966308594	107.6157684326172	-419.3109130859375	-10.410883903503418	-119.73904418945312	-484.721923828125	-0.0	-0.0	-0.0	-0.0	-0.0	-0.0	63806.56640625	-7898.60400390625	-1303.8433837890625
0.006	-0.0	-0.0	-0.0	-13.167348861694336	107.28450775146484	-417.1199340820313	-9.84689712524414	-119.94085693359376	-486.2290954589844	-0.0	-0.0	-0.0	-0.0	-0.0	-0.0	63882.23828125	-7985.65283203125	-1205.0264892578125
0.006500000000000001	-0.0	-0.0	-0.0	-13.102642059326172	106.6853256225586	-416.04595947265625	-9.697829246520996	-120.2941436767578	-488.5603332519531	-0.0	-0.0	-0.0	-0.0	-0.0	-0.0	63990.4140625	-8304.9853515625	-1195.5694580078125
0.007	-0.0	-0.0	-0.0	-13.856048583984377	106.51872253417967	-415.0020751953125	-9.463741302490234	-120.82406616210938	-491.1746215820313	-0.0	-0.0	-0.0	-0.0	-0.0	-0.0	64309.39453125	-8426.3134765625	-1145.7188720703125
0.0075	-0.0	-0.0	-0.0	-13.142284393310549	105.79779052734376	-412.4351501464844	-8.834818840026855	-120.64342498779295	-490.7802734375	-0.0	-0.0	-0.0	-0.0	-0.0	-0.0	64695.10546875	-8566.154296875	-994.2745971679688
0.008	-0.0	-0.0	-0.0	-12.74846649169922	105.14559936523438	-413.83197021484375	-8.87521743774414	-120.7802963256836	-491.84368896484375	-0.0	-0.0	-0.0	-0.0	-0.0	-0.0	64688.5546875	-8779.6064453125	-1084.6583251953125
0.0085	-0.0	-0.0	-0.0	-12.489471435546877	104.82190704345705	-413.2385864257813	-8.810478210449219	-120.38246154785156	-491.2391052246094	-0.0	-0.0	-0.0	-0.0	-0.0	-0.0	64750.09765625	-9011.6357421875	-956.4284057617188
0.009000000000000001	-0.0	-0.0	-0.0	-11.954208374023438	104.22631072998048	-414.8749694824219	-8.488184928894043	-120.2662124633789	-492.1754455566406	-0.0	-0.0	-0.0	-0.0	-0.0	-0.0	64911.3828125	-9070.1826171875	-1015.4976806640624
0.0095	-0.0	-0.0	-0.0	-12.015304565429688	103.95413970947266	-413.9654235839844	-8.492914199829102	-120.41967010498048	-492.3955993652344	-0.0	-0.0	-0.0	-0.0	-0.0	-0.0	65350.69921875	-9073.4619140625	-1132.6290283203125
0.01	-0.0	-0.0	-0.0	-11.63050937652588	104.24945831298828	-413.8662109375	-8.45052719116211	-119.75930786132812	-494.1982421875	-0.0	-0.0	-0.0	-0.0	-0.0	-0.0	65176.33984375	-9300.275390625	-1077.9647216796875
0.0105	-0.0	-0.0	-0.0	-11.55709457397461	104.19343566894533	-415.8036193847656	-8.622726440429688	-119.70365142822266	-494.2293090820313	-0.0	-0.0	-0.0	-0.0	-0.0	-0.0	65507.06640625	-9230.0166015625	-1152.75634765625
0.011	-0.0	-0.0	-0.0	-10.87283992767334	104.0539093017578	-414.34771728515625	-8.965024948120117	-119.85252380371094	-493.8305358886719	-0.0	-0.0	-0.0	-0.0	-0.0	-0.0	65688.5078125	-9481.6552734375	-1243.73974609375
0.0115	-0.0	-0.0	-0.0	-11.000741958618164	103.9651870727539	-413.4634704589844	-9.286887168884276	-119.52686309814452	-493.46044921875	-0.0	-0.0	-0.0	-0.0	-0.0	-0.0	65558.7890625	-9484.8388671875	-1206.801513671875
0.012	-0.0	-0.0	-0.0	-10.82227897644043	103.30213928222656	-412.9544982910156	-9.597567558288574	-119.77536010742188	-493.7003784179688	-0.0	-0.0	-0.0	-0.0	-0.0	-0.0	65923.34375	-9320.1494140625	-1173.7459716796875
0.0125	-0.0	-0.0	-0.0	-10.385787010192873	103.1299057006836	-412.1610107421875	-9.397502899169922	-119.08513641357422	-492.9163818359375	-0.0	-0.0	-0.0	-0.0	-0.0	-0.0	65376.86328125	-9352.96484375	-1255.109619140625
0.013000000000000001	-0.0	-0.0	-0.0	-10.616050720214844	102.92417907714844	-409.7133483886719	-9.93560791015625	-119.51123809814452	-493.0868835449219	-0.0	-0.0	-0.0	-0.0	-0.0	-0.0	65552.90625	-9502.9697265625	-1181.0751953125
0.0135	-0.0	-0.0	-0.0	-10.77952480316162	102.2049789428711	-407.1662902832031	-9.669475555419922	-118.79266357421876	-491.6296997070313	-0.0	-0.0	-0.0	-0.0	-0.0	-0.0	65277.54296875	-9336.2685546875	-1323.862548828125
0.014	-0.0	-0.0	-0.0	-10.25920867919922	101.32689666748048	-406.375	-9.880725860595703	-118.84095001220705	-490.342041015625	-0.0	-0.0	-0.0	-0.0	-0.0	-0.0	65390.90625	-9353.966796875	-1294.4144287109375
0.0145	-0.0	-0.0	-0.0	-9.600528717041016	100.79308319091795	-406.1834716796875	-10.00343132019043	-118.49393463134766	-488.812255859375	-0.0	-0.0	-0.0	-0.0	-0.0	-0.0	64974.5625	-9146.2822265625	-1321.927734375
0.015	-0.0	-0.0	-0.0	-9.82681941986084	100.52545166015624	-405.314697265625	-10.317790031433104	-118.49382019042967	-487.6835632324219	-0.0	-0.0	-0.0	-0.0	-0.0	-0.0	64684.40234375	-9194.810546875	-1347.130615234375
0.0155	-0.0	-0.0	-0.0	-9.387334823608398	100.2788314819336	-404.6076965332031	-9.86722183227539	-118.33081817626952	-486.7173461914063	-0.0	-0.0	-0.0	-0.0	-0.0	-0.0	64583.18359375	-9223.87109375	-1314.946044921875
